<svg width="30" height="31" viewBox="0 0 30 31" fill="none" xmlns="http://www.w3.org/2000/svg">
<path d="M25.591 4.59366C24.2024 3.19562 22.5509 2.08627 20.7315 1.32955C18.9122 0.572833 16.9611 0.183723 14.9906 0.184652C6.69794 0.184652 0 6.90135 0 15.194C0 23.4867 6.69794 30.2034 14.9906 30.2034C21.9887 30.2034 27.8236 25.4192 29.4934 18.9464H25.591C24.8181 21.1406 23.3834 23.0409 21.4847 24.3851C19.586 25.7293 17.317 26.4512 14.9906 26.4511C8.78049 26.4511 3.73358 21.4042 3.73358 15.194C3.73358 8.9839 8.78049 3.937 14.9906 3.937C18.1051 3.937 20.8818 5.23156 22.9081 7.27658L16.8668 13.3179H30V0.184652L25.591 4.59366Z" fill="url(#paint0_linear_1_169)"/>
<defs>
<linearGradient id="paint0_linear_1_169" x1="15" y1="0.18465" x2="15" y2="30.2034" gradientUnits="userSpaceOnUse">
<stop stop-color="#06286E"/>
<stop offset="1" stop-color="#164EC0"/>
</linearGradient>
</defs>
</svg>
