<svg width="28" height="33" viewBox="0 0 28 33" fill="none" xmlns="http://www.w3.org/2000/svg">
<g filter="url(#filter0_d_21_70)">
<path d="M9.75824 27.7612C9.75824 28.5405 10.3958 29.1781 11.1752 29.1781H16.8428C17.6221 29.1781 18.2597 28.5405 18.2597 27.7612V26.3443H9.75824V27.7612ZM14.009 0.839813C8.53969 0.839813 4.09058 5.28893 4.09058 10.7582C4.09058 14.1305 5.77671 17.0918 8.34132 18.8913V22.0935C8.34132 22.8728 8.97893 23.5105 9.75824 23.5105H18.2597C19.039 23.5105 19.6766 22.8728 19.6766 22.0935V18.8913C22.2413 17.0918 23.9274 14.1305 23.9274 10.7582C23.9274 5.28893 19.4783 0.839813 14.009 0.839813ZM18.0472 16.5676L16.8428 17.4177V20.6766H11.1752V17.4177L9.97077 16.5676C9.03205 15.9168 8.26472 15.0486 7.73425 14.037C7.20378 13.0254 6.92593 11.9005 6.92441 10.7582C6.92441 6.84753 10.0983 3.67364 14.009 3.67364C17.9197 3.67364 21.0936 6.84753 21.0936 10.7582C21.0936 13.0678 19.96 15.2357 18.0472 16.5676Z" fill="#F5F5F5"/>
</g>
<defs>
<filter id="filter0_d_21_70" x="0.0905762" y="0.839813" width="27.8368" height="36.3383" filterUnits="userSpaceOnUse" color-interpolation-filters="sRGB">
<feFlood flood-opacity="0" result="BackgroundImageFix"/>
<feColorMatrix in="SourceAlpha" type="matrix" values="0 0 0 0 0 0 0 0 0 0 0 0 0 0 0 0 0 0 127 0" result="hardAlpha"/>
<feOffset dy="4"/>
<feGaussianBlur stdDeviation="2"/>
<feComposite in2="hardAlpha" operator="out"/>
<feColorMatrix type="matrix" values="0 0 0 0 0 0 0 0 0 0 0 0 0 0 0 0 0 0 0.25 0"/>
<feBlend mode="normal" in2="BackgroundImageFix" result="effect1_dropShadow_21_70"/>
<feBlend mode="normal" in="SourceGraphic" in2="effect1_dropShadow_21_70" result="shape"/>
</filter>
</defs>
</svg>
